<mxfile host="app.diagrams.net" modified="2023-11-03T12:12:29.096Z" agent="Mozilla/5.0 (Macintosh; Intel Mac OS X 10_15_7) AppleWebKit/605.1.15 (KHTML, like Gecko) Version/17.0 Safari/605.1.15" etag="XdngqC9f2kfjnJxyl44k" version="22.0.8" type="device">
  <diagram name="Сторінка-1" id="BejdCQVzshnCHxZ48hBA">
    <mxGraphModel dx="913" dy="632" grid="1" gridSize="10" guides="1" tooltips="1" connect="1" arrows="1" fold="1" page="1" pageScale="1" pageWidth="827" pageHeight="1169" math="0" shadow="0">
      <root>
        <mxCell id="0" />
        <mxCell id="1" parent="0" />
        <mxCell id="4Kfib8SPv4-uAzIqDYmw-11" value="" style="edgeStyle=orthogonalEdgeStyle;rounded=0;orthogonalLoop=1;jettySize=auto;html=1;" parent="1" source="4Kfib8SPv4-uAzIqDYmw-5" target="4Kfib8SPv4-uAzIqDYmw-7" edge="1">
          <mxGeometry relative="1" as="geometry" />
        </mxCell>
        <mxCell id="4Kfib8SPv4-uAzIqDYmw-5" value="&lt;font style=&quot;font-size: 36px;&quot;&gt;Start&lt;/font&gt;" style="strokeWidth=2;html=1;shape=mxgraph.flowchart.start_2;whiteSpace=wrap;" parent="1" vertex="1">
          <mxGeometry x="330" y="90" width="100" height="100" as="geometry" />
        </mxCell>
        <mxCell id="4Kfib8SPv4-uAzIqDYmw-12" value="" style="edgeStyle=orthogonalEdgeStyle;rounded=0;orthogonalLoop=1;jettySize=auto;html=1;" parent="1" source="4Kfib8SPv4-uAzIqDYmw-7" target="4Kfib8SPv4-uAzIqDYmw-8" edge="1">
          <mxGeometry relative="1" as="geometry" />
        </mxCell>
        <mxCell id="4Kfib8SPv4-uAzIqDYmw-7" value="&lt;font style=&quot;font-size: 14px;&quot;&gt;&lt;font style=&quot;border-color: var(--border-color);&quot;&gt;input:&amp;nbsp;&lt;br&gt;&lt;/font&gt;name,&amp;nbsp;principal,&amp;nbsp;rate,&amp;nbsp;n,&amp;nbsp;years&lt;/font&gt;" style="shape=parallelogram;html=1;strokeWidth=2;perimeter=parallelogramPerimeter;whiteSpace=wrap;rounded=1;arcSize=12;size=0.23;" parent="1" vertex="1">
          <mxGeometry x="230" y="240" width="300" height="60" as="geometry" />
        </mxCell>
        <mxCell id="4Kfib8SPv4-uAzIqDYmw-21" value="" style="edgeStyle=orthogonalEdgeStyle;rounded=0;orthogonalLoop=1;jettySize=auto;html=1;" parent="1" source="4Kfib8SPv4-uAzIqDYmw-8" target="4Kfib8SPv4-uAzIqDYmw-20" edge="1">
          <mxGeometry relative="1" as="geometry" />
        </mxCell>
        <mxCell id="4Kfib8SPv4-uAzIqDYmw-8" value="&lt;div style=&quot;text-align: start; font-family: Menlo, Monaco, &amp;quot;Courier New&amp;quot;, monospace; line-height: 18px;&quot;&gt;&lt;font style=&quot;font-size: 14px;&quot;&gt;compoundInterest =&amp;nbsp;principal&lt;/font&gt;&lt;/div&gt;" style="rounded=1;whiteSpace=wrap;html=1;absoluteArcSize=1;arcSize=14;strokeWidth=2;" parent="1" vertex="1">
          <mxGeometry x="257.5" y="350" width="245" height="50" as="geometry" />
        </mxCell>
        <mxCell id="4Kfib8SPv4-uAzIqDYmw-24" value="" style="edgeStyle=orthogonalEdgeStyle;rounded=0;orthogonalLoop=1;jettySize=auto;html=1;" parent="1" source="4Kfib8SPv4-uAzIqDYmw-20" edge="1">
          <mxGeometry relative="1" as="geometry">
            <mxPoint x="514.5105990783411" y="516.2380952380952" as="targetPoint" />
          </mxGeometry>
        </mxCell>
        <mxCell id="4Kfib8SPv4-uAzIqDYmw-33" value="" style="edgeStyle=orthogonalEdgeStyle;rounded=0;orthogonalLoop=1;jettySize=auto;html=1;" parent="1" source="4Kfib8SPv4-uAzIqDYmw-20" target="4Kfib8SPv4-uAzIqDYmw-32" edge="1">
          <mxGeometry x="0.1351" y="20" relative="1" as="geometry">
            <mxPoint as="offset" />
          </mxGeometry>
        </mxCell>
        <mxCell id="4Kfib8SPv4-uAzIqDYmw-20" value="&lt;div style=&quot;font-family: Menlo, Monaco, &amp;quot;Courier New&amp;quot;, monospace; line-height: 18px;&quot;&gt;&lt;font style=&quot;font-size: 12px;&quot;&gt;for i = 0&lt;/font&gt;&lt;/div&gt;&lt;div style=&quot;font-family: Menlo, Monaco, &amp;quot;Courier New&amp;quot;, monospace; line-height: 18px;&quot;&gt;i &amp;lt; n* years&lt;/div&gt;" style="strokeWidth=2;html=1;shape=mxgraph.flowchart.decision;whiteSpace=wrap;align=center;" parent="1" vertex="1">
          <mxGeometry x="310" y="458.75" width="140" height="115" as="geometry" />
        </mxCell>
        <mxCell id="4Kfib8SPv4-uAzIqDYmw-29" value="" style="endArrow=classic;html=1;rounded=0;" parent="1" edge="1">
          <mxGeometry width="50" height="50" relative="1" as="geometry">
            <mxPoint x="610" y="430" as="sourcePoint" />
            <mxPoint x="380" y="430" as="targetPoint" />
          </mxGeometry>
        </mxCell>
        <mxCell id="4Kfib8SPv4-uAzIqDYmw-31" value="&lt;font style=&quot;font-size: 18px;&quot;&gt;i++&lt;/font&gt;" style="edgeLabel;html=1;align=center;verticalAlign=middle;resizable=0;points=[];" parent="4Kfib8SPv4-uAzIqDYmw-29" vertex="1" connectable="0">
          <mxGeometry x="-0.344" y="3" relative="1" as="geometry">
            <mxPoint x="-8" y="-23" as="offset" />
          </mxGeometry>
        </mxCell>
        <mxCell id="4Kfib8SPv4-uAzIqDYmw-30" value="" style="endArrow=none;html=1;rounded=0;exitX=0.5;exitY=0;exitDx=0;exitDy=0;" parent="1" source="4Kfib8SPv4-uAzIqDYmw-39" edge="1">
          <mxGeometry width="50" height="50" relative="1" as="geometry">
            <mxPoint x="630" y="477.4999999999999" as="sourcePoint" />
            <mxPoint x="610" y="430" as="targetPoint" />
            <Array as="points">
              <mxPoint x="610" y="460" />
            </Array>
          </mxGeometry>
        </mxCell>
        <mxCell id="4Kfib8SPv4-uAzIqDYmw-35" value="" style="edgeStyle=orthogonalEdgeStyle;rounded=0;orthogonalLoop=1;jettySize=auto;html=1;" parent="1" source="4Kfib8SPv4-uAzIqDYmw-32" target="4Kfib8SPv4-uAzIqDYmw-34" edge="1">
          <mxGeometry relative="1" as="geometry" />
        </mxCell>
        <mxCell id="4Kfib8SPv4-uAzIqDYmw-32" value="compoundInterest=&lt;br&gt;compoundInterest * principal" style="rounded=1;whiteSpace=wrap;html=1;absoluteArcSize=1;arcSize=14;strokeWidth=2;" parent="1" vertex="1">
          <mxGeometry x="295" y="620" width="170" height="60" as="geometry" />
        </mxCell>
        <mxCell id="4Kfib8SPv4-uAzIqDYmw-37" value="" style="edgeStyle=orthogonalEdgeStyle;rounded=0;orthogonalLoop=1;jettySize=auto;html=1;" parent="1" source="4Kfib8SPv4-uAzIqDYmw-34" target="4Kfib8SPv4-uAzIqDYmw-36" edge="1">
          <mxGeometry relative="1" as="geometry" />
        </mxCell>
        <mxCell id="4Kfib8SPv4-uAzIqDYmw-34" value="Output&lt;br&gt;compoundInterest" style="shape=parallelogram;html=1;strokeWidth=2;perimeter=parallelogramPerimeter;whiteSpace=wrap;rounded=1;arcSize=12;size=0.23;" parent="1" vertex="1">
          <mxGeometry x="300" y="720" width="160" height="60" as="geometry" />
        </mxCell>
        <mxCell id="4Kfib8SPv4-uAzIqDYmw-36" value="End" style="strokeWidth=2;html=1;shape=mxgraph.flowchart.start_1;whiteSpace=wrap;" parent="1" vertex="1">
          <mxGeometry x="330" y="810" width="100" height="60" as="geometry" />
        </mxCell>
        <mxCell id="4Kfib8SPv4-uAzIqDYmw-39" value="&lt;div style=&quot;border-color: var(--border-color); text-align: start; font-family: Menlo, Monaco, &amp;quot;Courier New&amp;quot;, monospace; line-height: 18px;&quot;&gt;compoundInterest =&amp;nbsp;&lt;/div&gt;&lt;div style=&quot;border-color: var(--border-color); text-align: start; font-family: Menlo, Monaco, &amp;quot;Courier New&amp;quot;, monospace; line-height: 18px;&quot;&gt;compoundInterest +&lt;/div&gt;&lt;div style=&quot;border-color: var(--border-color); text-align: start; font-family: Menlo, Monaco, &amp;quot;Courier New&amp;quot;, monospace; line-height: 18px;&quot;&gt;compoundInterest*rate/100&lt;/div&gt;" style="rounded=1;whiteSpace=wrap;html=1;absoluteArcSize=1;arcSize=14;strokeWidth=2;" parent="1" vertex="1">
          <mxGeometry x="510" y="474.38" width="200" height="83.75" as="geometry" />
        </mxCell>
      </root>
    </mxGraphModel>
  </diagram>
</mxfile>
